# xmcd
#
# Track frame offsets: 
#        150
#        19177
#        40192
#        64162
#        94592
#        120162
#        144997
#        165549
#
# Disc length: 2579 seconds
#
# Revision: 2
# Processed by: cddbd v1.5.1PL2 Copyright (c) Steve Scherf et al.
# Submitted via: ExactAudioCopy v0.95b3
#
DISCID=5b0a1108
DTITLE=Kitaro - Tenku
DYEAR=1986
DGENRE=New Age
TTITLE0=Tenku
TTITLE1=Romance
TTITLE2=Wings
TTITLE3=Aura
TTITLE4=Message from the Cosmos
TTITLE5=Time Traveller
TTITLE6=Legend of the Road
TTITLE7=Milky Way
EXTD=YEAR: 1986
EXTT0=
EXTT1=
EXTT2=
EXTT3=
EXTT4=
EXTT5=
EXTT6=
EXTT7=
PLAYORDER=
